<?xml version="1.0" standalone="no"?>
<!DOCTYPE svg PUBLIC "-//W3C//DTD SVG 1.1//EN" "http://www.w3.org/Graphics/SVG/1.1/DTD/svg11.dtd" >
<svg xmlns="http://www.w3.org/2000/svg">
<metadata>
Created by FontForge 20120731 at Mon Sep  5 14:51:18 2016
 By admin
</metadata>
<defs>
<font id="iconfont" horiz-adv-x="1024" >
  <font-face 
    font-family="iconfont"
    font-weight="500"
    font-stretch="normal"
    units-per-em="1024"
    panose-1="2 0 6 3 0 0 0 0 0 0"
    ascent="896"
    descent="-128"
    x-height="792"
    bbox="-0.37037 -212.013 1087 896"
    underline-thickness="50"
    underline-position="-100"
    unicode-range="U+0078-E626"
  />
<missing-glyph horiz-adv-x="374" 
d="M34 0v682h272v-682h-272zM68 34h204v614h-204v-614z" />
    <glyph glyph-name=".notdef" horiz-adv-x="374" 
d="M34 0v682h272v-682h-272zM68 34h204v614h-204v-614z" />
    <glyph glyph-name=".null" horiz-adv-x="0" 
 />
    <glyph glyph-name="nonmarkingreturn" horiz-adv-x="341" 
 />
    <glyph glyph-name="x" unicode="x" horiz-adv-x="1001" 
d="M281 543q-27 -1 -53 -1h-83q-18 0 -36.5 -6t-32.5 -18.5t-23 -32t-9 -45.5v-76h912v41q0 16 -0.5 30t-0.5 18q0 13 -5 29t-17 29.5t-31.5 22.5t-49.5 9h-133v-97h-438v97zM955 310v-52q0 -23 0.5 -52t0.5 -58t-10.5 -47.5t-26 -30t-33 -16t-31.5 -4.5q-14 -1 -29.5 -0.5
t-29.5 0.5h-32l-45 128h-439l-44 -128h-29h-34q-20 0 -45 1q-25 0 -41 9.5t-25.5 23t-13.5 29.5t-4 30v167h911zM163 247q-12 0 -21 -8.5t-9 -21.5t9 -21.5t21 -8.5q13 0 22 8.5t9 21.5t-9 21.5t-22 8.5zM316 123q-8 -26 -14 -48q-5 -19 -10.5 -37t-7.5 -25t-3 -15t1 -14.5
t9.5 -10.5t21.5 -4h37h67h81h80h64h36q23 0 34 12t2 38q-5 13 -9.5 30.5t-9.5 34.5q-5 19 -11 39h-368zM336 498v228q0 11 2.5 23t10 21.5t20.5 15.5t34 6h188q31 0 51.5 -14.5t20.5 -52.5v-227h-327z" />
    <glyph glyph-name="uniE600" unicode="&#xe600;" 
d="M750 364h-476q-14 0 -24 9t-10 23t10 23t24 9h476q14 0 24 -9t10 -23t-10 -23t-24 -9zM682 236h-408q-14 0 -24 9t-10 23t10 23t24 9h408q14 0 24 -9t10 -23t-10 -23t-24 -9zM784 748h-544q-70 0 -123 -53t-53 -123v-544q0 -70 53 -123t123 -53h490l230 230v490
q0 70 -53 123t-123 53zM128 28v544q0 42 35 77t77 35h544q42 0 77 -35t35 -77v-460h-227v-196h-429q-42 0 -77 35t-35 77z" />
    <glyph glyph-name="uniE601" unicode="&#xe601;" 
d="M761 -212h-498v42q33 12 66 21q33 8 73 15v870h-189l-79 -209h-37q-5 29 -8 66q-3 34 -5 76q-2 36 -4 76q-1 38 -1 67h866q0 -28 -1.5 -66t-3.5 -75q-1 -7 -2.5 -34.5t-2.5 -41.5q-2 -38 -6 -68h-40l-78 209h-187v-871q42 -8 72 -14q34 -8 65 -21v-42z" />
    <glyph glyph-name="uniE602" unicode="&#xe602;" 
d="M873 692h-724q-35 0 -59.5 -24.5t-24.5 -59.5v-613q0 -35 24.5 -59.5t59.5 -24.5h724q35 0 59.5 24.5t24.5 59.5v613q0 35 -24.5 59.5t-59.5 24.5zM149 636h724q12 0 20 -8.5t8 -19.5v-328q-105 86 -216 86q-31 0 -62.5 -10t-67.5 -32.5t-59 -39.5t-64 -49
q-42 -33 -65 -50t-55 -34t-54 -17q-70 0 -137 65v409q0 11 8 19.5t20 8.5zM873 -33h-724q-12 0 -20 8t-8 20v132q68 -48 137 -48q24 0 48.5 8t54.5 27.5t49.5 33.5t55.5 43q38 30 58.5 45t52.5 35.5t58 30t50 9.5q34 0 68.5 -11.5t58.5 -25.5t47 -32t30.5 -26t11.5 -12v-209
q0 -12 -8 -20t-20 -8zM344 301q46 0 78.5 33t32.5 79t-32.5 78.5t-79 32.5t-79 -32.5t-32.5 -78.5t32.5 -79t79.5 -33zM344 469q23 0 39.5 -16.5t16.5 -39.5t-16.5 -39.5t-39.5 -16.5t-39.5 16.5t-16.5 39.5t16.5 39.5t39.5 16.5zM344 469z" />
    <glyph glyph-name="uniE603" unicode="&#xe603;" 
d="M578 703h438v-63h-438v63zM578 514h438v-63h-438v63zM578 138h438v-63h-438v63zM578 -51h438v-63h-438v63zM449 358h-438v437h438v-437zM386 733h-313v-313h313v313zM449 -206h-438v438h438v-438zM386 170h-313v-313h313v313z" />
    <glyph glyph-name="uniE604" unicode="&#xe604;" 
d="M643 -202q-12 0 -21 8l-305 274h-176q-20 0 -41 7t-40.5 21t-32 39.5t-12.5 58.5v188q0 20 7 41t21 40.5t39.5 32t58.5 12.5h176l305 274q15 14 33.5 5.5t18.5 -28.5v-942q0 -20 -18 -28q-7 -3 -13 -3zM141 457q-21 0 -35 -8t-19.5 -20t-7 -20t-1.5 -15v-188q0 -21 8 -35
t20 -19t20 -7t15 -2h188q12 0 21 -8l261 -235v800l-261 -235q-9 -8 -21 -8h-188zM800 488q-13 0 -22.5 9.5t-9.5 22.5t9 22l126 125q9 9 22 9t22 -9t9 -22t-9 -22l-125 -126q-9 -9 -22 -9zM988 269h-188q-13 0 -22.5 9t-9.5 22t9.5 22t22.5 9h188q13 0 22 -9t9 -22t-9 -22
t-22 -9zM925 -76q-13 0 -22 9l-126 125q-9 9 -9 22t9.5 22.5t22.5 9.5t22 -9l125 -126q9 -9 9 -22t-9 -22t-22 -9zM925 -76z" />
    <glyph glyph-name="uniE605" unicode="&#xe605;" 
d="M256 667q21 0 36 -15t15 -36.5t-15 -36.5t-36 -15t-36 15t-15 36.5t15 36.5t36 15zM256 667zM768 667q21 0 36 -15t15 -36.5t-15 -36.5t-36 -15t-36 15t-15 36.5t15 36.5t36 15zM768 667zM870 -79h-716q-42 0 -72 30t-30 73v720q0 43 30 73t72 30h716q42 0 72 -30t30 -73
v-720q0 -43 -30 -73t-72 -30zM154 796q-21 0 -36 -15t-15 -37v-720q0 -22 15 -37t36 -15h716q21 0 36 15t15 37v720q0 22 -15 37t-36 15h-716zM154 796zM512 333q-116 0 -198.5 83t-82.5 200q0 10 7.5 17.5t18 7.5t18 -7.5t7.5 -17.5q0 -96 67.5 -164t162.5 -68t162.5 68
t67.5 164q0 10 7.5 17.5t18 7.5t18 -7.5t7.5 -17.5q0 -117 -82.5 -200t-198.5 -83zM512 333z" />
    <glyph glyph-name="uniE606" unicode="&#xe606;" 
d="M116 762v-307h85v307h117v70h-318v-70h116zM412 770v62h-77v-62h77zM335 728v-273h77v273h-77zM550 728v82h-77v-82h-47v-50h47v-161q0 -21 7 -33.5t19 -19.5t28 -9.5t34 -2.5q12 0 24 0.5t21 2.5v58q-5 -1 -11 -1.5t-12 -0.5q-20 0 -26.5 6.5t-6.5 25.5v135h56v50h-56z
M625 832v-377h77v377h-77zM931 621h-126q1 8 4 18t10 19t19.5 15t30.5 6q29 0 42.5 -15t19.5 -43zM805 573h203q2 32 -5.5 61t-25 51.5t-44 36t-62.5 13.5q-32 0 -58 -11t-45 -30t-29.5 -45.5t-10.5 -57.5q0 -32 10 -58t28.5 -45t45 -29.5t59.5 -10.5q48 0 82 21t50 70h-68
q-4 -12 -20.5 -23.5t-40.5 -11.5q-32 0 -49.5 16.5t-19.5 52.5zM0 320h1024v-64h-1024v64zM0 128h1024v-64h-1024v64zM0 -64h768v-64h-768v64z" />
    <glyph glyph-name="uniE607" unicode="&#xe607;" 
d="M0 416h320v-32h-320v32zM352 416h320v-32h-320v32zM704 416h320v-32h-320v32zM0 768h1024v-32h-1024v32zM0 32h1024v-32h-1024v32z" />
    <glyph glyph-name="uniE608" unicode="&#xe608;" 
d="M1015 -126l-292 294q59 78 75.5 173t-12.5 188t-99 164q-58 57 -133 87t-150.5 30t-150.5 -30t-132 -87q-77 -77 -104.5 -180t0 -206.5t104.5 -179.5q70 -71 163 -100t188 -12.5t173 75.5l292 -294q7 -7 17 -7t18 7l43 44q7 7 7 17t-7 17zM195 199q-86 86 -86 207.5
t86 207.5t207.5 86t208 -86t86.5 -207.5t-86.5 -207.5t-208 -86t-207.5 86z" />
    <glyph glyph-name="uniE609" unicode="&#xe609;" 
d="M889 220q-5 14 -29 16l-164 18q98 155 98 240q0 87 -42.5 160t-116.5 115.5t-161 42.5t-161 -42.5t-117 -115.5t-43 -160q0 -89 110 -257l-234 26q-13 1 -21.5 -3.5t-7.5 -12.5l63 -386q3 -16 26 -19l296 -43q3 -1 5.5 -1t5.5 1l283 33l313 -43q3 -1 6 -1q12 0 19 4
q9 6 6 16zM473.5 680q66.5 0 113.5 -46.5t47 -112.5t-47 -112.5t-113.5 -46.5t-113 46.5t-46.5 112.5t46.5 112.5t113 46.5zM585 74l-22 -3q11 14 17 22zM56 227l219 -25l33 -156l-226 29zM117 -125l-28 164l227 -30l36 -167zM349 117q26 -34 52 -67l-36 -4zM410 -159
l-37 168l57 7q11 -14 22.5 -27t16.5 -19l5 -5q22 25 55 64l66 8l44 -168zM622 148q27 36 53 75l160 -18l51 -161l-243 30zM699 -132l-46 169l245 -31l55 -173z" />
    <glyph glyph-name="uniE60A" unicode="&#xe60a;" 
d="M823 452l-285 285q-11 11 -26 11t-26 -11l-285 -285q-11 -11 -11 -26.5t11 -26.5t26.5 -11t26.5 11l221 221v-730q0 -16 10.5 -27t26 -11t26.5 11t11 27v730l221 -221q11 -11 26.5 -11t26.5 11t11 26.5t-11 26.5z" />
    <glyph glyph-name="uniE60B" unicode="&#xe60b;" 
d="M847 196q-38 0 -68.5 20.5t-43.5 53.5q-14 -33 -44 -53.5t-67.5 -20.5t-67.5 20.5t-43 53.5q-14 -33 -44.5 -53.5t-68.5 -20.5q-37 0 -67 20.5t-44 53.5q-13 -33 -43.5 -53.5t-68.5 -20.5q-17 0 -34 5v-247q0 -18 15.5 -34.5t32.5 -16.5h642q17 0 32.5 16.5t15.5 34.5
v247q-17 -5 -34 -5zM879 587h-737l-77 -201q0 -45 33 -77t78 -32q47 0 80 32t33 77q0 -45 32.5 -77t78.5 -32t79 32t33 77q0 -45 32.5 -77t78.5 -32t78.5 32t32.5 77q0 -45 33 -77t79 -32t79.5 32t33.5 77zM844 588l2 -1zM193 621h638q16 0 27 11t11 27t-11 27t-27 11h-638
q-16 0 -27 -11t-11 -27t11 -27t27 -11zM157 638z" />
    <glyph glyph-name="uniE60C" unicode="&#xe60c;" 
d="M794 -77h-564q-84 0 -144 60t-60 145v512q0 85 60 145t144 60h564q84 0 144 -60t60 -145v-512q0 -85 -60 -145t-144 -60zM947 609q0 77 -54 131t-130 54h-502q-76 0 -130 -54t-54 -131v-450q0 -77 54 -131t130 -54h502q76 0 130 54t54 131v450zM384 588l307 -204
l-307 -204v408z" />
    <glyph glyph-name="uniE60D" unicode="&#xe60d;" 
d="M622 91q-16 0 -26.5 11t-10.5 26v402q0 15 11 26t26 11t25.5 -11t10.5 -26v-402q0 -15 -10.5 -26t-25.5 -11zM402 91q-15 0 -25.5 11t-10.5 26v402q0 15 10.5 26t25.5 11t26 -11t11 -26v-402q0 -15 -10.5 -26t-26.5 -11zM987 713h-182v73q0 46 -32 78t-77 32h-367
q-45 0 -77.5 -32t-32.5 -78v-73h-182q-16 0 -26.5 -10.5t-10.5 -26t10.5 -26t26.5 -10.5h950q16 0 26.5 10.5t10.5 26t-10.5 26t-26.5 10.5zM293 786q0 15 10.5 26t25.5 11h367q15 0 25 -10.5t10 -26.5v-73h-438v73zM768 -128h-512q-45 0 -77.5 32t-32.5 78v549
q0 15 11 25.5t26 10.5t26 -10.5t11 -25.5v-549q0 -15 10.5 -26t25.5 -11h512q15 0 26 11t11 26v547q0 15 10.5 26t26 11t26 -11t10.5 -26v-547q0 -46 -32.5 -78t-77.5 -32zM768 -128z" />
    <glyph glyph-name="uniE60E" unicode="&#xe60e;" 
d="M93 839l838 -484l-838 -483v967z" />
    <glyph glyph-name="uniE60F" unicode="&#xe60f;" 
d="M828 462.5q-11 0.5 -19 -7t-8 -17.5q0 -5 -1 -13q-2 -17 -5 -36q-11 -59 -35 -109q-74 -153 -245.5 -153t-245.5 151q-24 48 -35 107q-3 18 -5 35q-1 8 -1 13q0 10 -8 17.5t-18.5 7t-18 -8.5t-7.5 -18q1 -23 7 -56q13 -65 40 -120q81 -166 262 -179v-87h-181
q-11 0 -18.5 -7.5t-7.5 -18.5t7.5 -18.5t18.5 -7.5h417q11 0 18.5 7.5t7.5 18.5t-7.5 18.5t-18.5 7.5h-184v87q187 9 270 182q27 55 39 122q6 33 7 56q0 11 -7 18.5t-18 8zM510.5 208q78.5 0 134.5 55.5t56 134.5v243q0 79 -55.5 134.5t-134.5 55.5t-135 -55.5t-56 -134.5
v-243q0 -79 56 -134.5t134.5 -55.5zM372 641q0 57 40.5 97.5t98 40.5t98 -40.5t40.5 -97.5v-243q0 -57 -40.5 -97.5t-98 -40.5t-98 40.5t-40.5 97.5v243zM828 462.5q-11 0.5 -19 -7t-8 -17.5q0 -5 -1 -13q-2 -17 -5 -36q-11 -59 -35 -109q-74 -153 -245.5 -153t-245.5 151
q-24 48 -35 107q-3 18 -5 35q-1 8 -1 13q0 10 -8 17.5t-18.5 7t-18 -8.5t-7.5 -18q1 -23 7 -56q13 -65 40 -120q81 -166 262 -179v-87h-181q-11 0 -18.5 -7.5t-7.5 -18.5t7.5 -18.5t18.5 -7.5h417q11 0 18.5 7.5t7.5 18.5t-7.5 18.5t-18.5 7.5h-184v87q187 9 270 182
q27 55 39 122q6 33 7 56q0 11 -7 18.5t-18 8zM510.5 208q78.5 0 134.5 55.5t56 134.5v243q0 79 -55.5 134.5t-134.5 55.5t-135 -55.5t-56 -134.5v-243q0 -79 56 -134.5t134.5 -55.5zM372 641q0 57 40.5 97.5t98 40.5t98 -40.5t40.5 -97.5v-243q0 -57 -40.5 -97.5t-98 -40.5
t-98 40.5t-40.5 97.5v243z" />
    <glyph glyph-name="uniE610" unicode="&#xe610;" 
d="M746 195q13 -11 31 -10t30.5 13t11.5 28t-14 27q-65 53 -65 131t65 131q14 12 14 29q0 15 -11 27q-12 12 -30.5 12.5t-31.5 -10.5q-45 -36 -69.5 -85.5t-24.5 -103.5t24.5 -103.5t69.5 -85.5zM579 66q13 -12 31 -12t31 11.5t13 27.5t-13 28q-59 53 -90 120.5t-31 142.5
t31 142.5t90 120.5q13 12 13 28t-13 27.5t-31 11.5t-31 -11q-71 -64 -109 -146.5t-38 -172.5t38 -172.5t109 -145.5zM413 -64q13 -12 31 -12.5t31.5 11t13.5 27.5t-12 28q-86 80 -131.5 181.5t-45.5 212.5t45.5 212.5t131.5 181.5q12 11 12 27q0 17 -13 29q-14 11 -32 10.5
t-31 -12.5q-97 -90 -149.5 -206t-52.5 -242t52.5 -242t149.5 -206v0zM413 -64z" />
    <glyph glyph-name="uniE611" unicode="&#xe611;" horiz-adv-x="1088" 
d="M85 -212q-35 0 -60 24.5t-25 58.5v662q0 35 25 59t60 24h212v-63h-212q-9 0 -15 -6t-6 -14v-662q0 -8 6 -13.5t15 -5.5h860q9 0 15.5 5.5t6.5 13.5v238h64v-238q0 -34 -25 -58.5t-61 -24.5h-860zM448 18q-2 6 -3.5 21.5t0 56t9 82t29.5 97t56 104.5q128 184 413 249
l-231 124l33 60l333 -181l-195 -309l-57 36l128 203q-256 -60 -368 -220q-65 -92 -79 -213q-7 -61 -1 -107l2 -10l-68 -1zM457 19q-1 8 -2.5 24t0 55.5t9 80t29 94t53.5 100.5q141 201 471 258l8 -48q-310 -53 -438 -237q-30 -42 -49 -92t-26 -86.5t-8 -76t0 -50.5t2 -21
l-49 -1v0zM889 335l-41 26l157 249l-271 146l23 43l317 -171zM889 335z" />
    <glyph glyph-name="uniE612" unicode="&#xe612;" 
d="M165 331h696v-58h-696v58zM484 650h58v-696h-58v696z" />
    <glyph glyph-name="uniE613" unicode="&#xe613;" 
d="M395 507h229v-51h-229v51zM246 379h530v-51h-530v51zM113 251h791v-51h-791v51zM0 122h1024v-51h-1024v51z" />
    <glyph glyph-name="uniE614" unicode="&#xe614;" 
d="M295 493h51v-228h-51v228zM423 644h51v-527h-51v527zM550 771h51v-787h-51v787zM678 891h51v-1019h-51v1019z" />
    <glyph glyph-name="uniE615" unicode="&#xe615;" 
d="M678 493h51v-228h-51v228zM550 644h51v-527h-51v527zM423 771h51v-787h-51v787zM295 891h51v-1019h-51v1019z" />
    <glyph glyph-name="uniE616" unicode="&#xe616;" 
d="M395 212h229v-51h-229v51zM246 340h530v-51h-530v51zM113 468h791v-51h-791v51zM0 596h1024v-51h-1024v51z" />
    <glyph glyph-name="uniE617" unicode="&#xe617;" 
d="M88 326h145q10 0 17 7t7 17t-7 17t-17 7h-145q-10 0 -17.5 -7t-7.5 -17t7.5 -17t17.5 -7zM282 180h-194q-10 0 -17.5 -7t-7.5 -17t7.5 -17t17.5 -7h194q10 0 17 7t7 17t-7 17t-17 7zM88 714h679q10 0 17 7t7 17t-7 17t-17 7l-679 1q-10 0 -17.5 -7t-7.5 -17
q0 -11 7.5 -18t17.5 -7zM282 568h-194q-10 0 -17.5 -7t-7.5 -17t7.5 -17t17.5 -7h194q10 0 17 7t7 17t-7 17t-17 7zM611 111q-113 0 -193 80t-80 193t80 193t193 80t193 -80t80 -193t-80 -193t-193 -80zM611.5 617q-96.5 0 -165 -68t-68.5 -165q0 -96 68.5 -164.5t165 -68.5
t165 68.5t68.5 164.5t-68.5 164.5t-165 68.5zM731 524q-23 22 -52 23t-51 -20l-20 -19q-6 -6 -6 -14t6 -13q6 -6 14.5 -6t13.5 6l20 19q12 10 24.5 8t22.5 -12q11 -11 11 -24q0 -15 -11 -25l-64 -61q-29 -29 -48 -10q-6 6 -14.5 6t-14 -5.5t-5.5 -13.5t6 -14q20 -19 44 -19
q31 0 60 28l64 62q22 21 22 52q0 30 -22 52zM550 299l-16 -16q-11 -10 -26 -10t-26 10q-10 10 -10 24.5t10 24.5l60 58q34 32 53 13q6 -5 14 -5t14 5.5t6 13.5t-6 14q-21 21 -51 17t-57 -31l-60 -58q-22 -21 -22 -52q0 -30 22 -52q22 -21 53.5 -21t53.5 21l17 16q5 6 5 14
t-5 13q-7 7 -15 7t-14 -6z" />
    <glyph glyph-name="uniE618" unicode="&#xe618;" horiz-adv-x="1030" 
d="M129 512q0 -40 28 -68t68 -28t68 28t28 68t-28 68t-68 28t-68 -28t-28 -68zM983 285v-368l-246 267l-144 -145l-275 282l-276 -397v751h391v41h-432v-844h1023v413h-41zM750 255q-115 0 -197 85t-82 204q0 120 82 205t197.5 85t197 -85t81.5 -205t-81.5 -204.5
t-197.5 -84.5zM750 791q-99 0 -169 -72.5t-70 -174.5t70 -175t169 -73t169 73t70 175t-70 174.5t-169 72.5zM872 692q-23 23 -53 24.5t-52 -20.5l-21 -21q-6 -6 -6 -14.5t6 -14.5t14.5 -6t14.5 6l21 21q21 22 48 -4q11 -11 11 -26t-11 -26l-65 -65q-30 -30 -50 -10
q-6 6 -14.5 6t-14.5 -6q-5 -6 -5 -14.5t5 -14.5q21 -21 46 -21q30 0 61 31l65 65q23 22 23 55q0 32 -23 55zM688 454l-17 -16q-11 -11 -26 -11t-26 11q-11 10 -11 26q0 15 11 26l61 61q34 34 54 14q6 -6 14.5 -6t13.5 6q6 6 6 14.5t-6 14.5q-22 22 -52 18.5t-59 -32.5
l-61 -61q-22 -22 -22 -55q0 -32 22 -55q22 -22 55 -22q32 0 55 22l16 17q6 6 6 14.5t-6 14.5q-6 5 -14.5 5t-13.5 -6z" />
    <glyph glyph-name="uniE619" unicode="&#xe619;" 
d="M785 316l-273 -417l-273 417h546zM512 -117q-9 0 -13 7l-274 417q-5 8 -0.5 16.5t14.5 8.5h546q10 0 14.5 -8.5t-0.5 -16.5l-274 -417q-4 -7 -13 -7zM268 300l244 -372l244 372h-488z" />
    <glyph glyph-name="uniE61A" unicode="&#xe61a;" 
d="M63 289q0 91 35.5 174t95.5 143t143 95.5t174 35.5t174 -35.5t143 -95.5t95.5 -143t35.5 -174t-35.5 -174t-95.5 -143t-143 -95.5t-174 -35.5t-174 35.5t-143 95.5t-95.5 143t-35.5 174zM510 403q30 0 52.5 21.5t22.5 51.5t-22.5 51.5t-52.5 21.5q-31 0 -52 -21.5
t-21 -51.5t21 -51.5t52 -21.5zM512 341q-28 0 -48 -19.5t-20 -46.5v-206q0 -27 20 -46.5t47.5 -19.5t47 19.5t19.5 46.5v206q0 27 -19.5 46.5t-46.5 19.5zM512 341z" />
    <glyph glyph-name="uniE61B" unicode="&#xe61b;" 
d="M449 850l404 -420l44 -46l-44 -45l-404 -421l-44 -45l-88 91l44 46l404 420v-91l-404 420l-44 46l88 91z" />
    <glyph glyph-name="uniE61C" unicode="&#xe61c;" 
d="M865 658l-79 79l-274 -282l-274 282l-79 -79l282 -274l-282 -274l79 -79l274 282l274 -274l71 71l-274 274z" />
    <glyph glyph-name="uniE61D" unicode="&#xe61d;" 
d="M825 652l-386 -402l-229 239l-116 -123l334 -349l502 523z" />
    <glyph glyph-name="uniE61E" unicode="&#xe61e;" 
d="M512 739q-117 0 -216.5 -58t-157.5 -157.5t-58 -216.5t58 -216.5t157.5 -157.5t216.5 -58t216.5 58t157.5 157.5t58 216.5t-58 216.5t-157.5 157.5t-216.5 58zM721 150l-53 -52l-156 157l-156 -157l-53 52l157 157l-157 156l52 53l157 -157l156 157l53 -53l-157 -156z
" />
    <glyph glyph-name="uniE61F" unicode="&#xe61f;" 
d="M512 831q-91 0 -174 -35.5t-142.5 -95t-95 -142.5t-35.5 -174t35.5 -174t95 -142.5t142.5 -95t174 -35.5t174 35.5t142.5 95t95 142.5t35.5 174t-35.5 174t-95 142.5t-142.5 95t-174 35.5zM465 691q19 20 50 20q38 0 50 -26q13 -26 13 -75q0 -29 -3 -58l-19 -216
q-3 -39 -13 -59q-10 -21 -33 -21q-24 0 -33 20t-13 61l-14 209q-4 62 -4 88q0 37 19 57zM558.5 66.5q-19.5 -17.5 -46.5 -17.5q-26 0 -46 17t-20 48q0 27 19 46.5t46.5 19.5t47 -19.5t19.5 -46.5q0 -30 -19.5 -47.5z" />
    <glyph glyph-name="uniE620" unicode="&#xe620;" 
d="M994 770l-386 -386l386 -386l-96 -97l-386 386l-386 -386l-97 97l386 386l-386 386l97 97l386 -386l386 386z" />
    <glyph glyph-name="uniE621" unicode="&#xe621;" 
d="M640 768v-64h77l-397 -474v538h-256v-64h64v-704h192l640 768h-320z" />
    <glyph glyph-name="uniE622" unicode="&#xe622;" 
d="M453 832h120v-387h387v-120h-387v-389h-120v389h-389v120h389v387z" />
    <glyph glyph-name="uniE623" unicode="&#xe623;" 
d="M128 448h767v-127h-767v127z" />
    <glyph glyph-name="uniE624" unicode="&#xe624;" 
d="M397 507l-109 -111q46 -102 131.5 -191t184.5 -122l94 94q223 -39 273 -64q63 -30 51 -125q-3 -25 -19.5 -57.5t-44.5 -65t-73.5 -54.5t-96.5 -23q-111 -1 -256 74.5t-260 196.5q-61 65 -110.5 130t-89.5 136t-59 142.5t-11 135.5q7 49 28 88t45.5 60.5t54.5 35.5
t49.5 18.5t35.5 6.5q59 4 92 -38q14 -16 36 -83t38 -126zM273 738q-25 33 -80 20q-14 -3 -33 -12.5t-43 -27t-43 -49.5t-24 -71q-12 -97 55 -238t189 -259q258 -250 465 -267q40 -3 75 8t58.5 28.5t42 40t27.5 40t13 30.5q7 28 2 52.5t-20 35.5q-12 9 -72.5 23t-115.5 25
l-55 10l-99 -97q-123 40 -227 143.5t-152 237.5l107 108q0 1 -13.5 49.5t-31 104t-25.5 65.5z" />
    <glyph glyph-name="uniE626" unicode="&#xe626;" 
d="M360 421h-205q-51 0 -87 36.5t-36 86.5v205q0 51 36 87t87 36h205q51 0 87 -36t36 -87v-205q0 -50 -36 -86.5t-87 -36.5zM165 812q-30 0 -51.5 -21.5t-21.5 -51.5v-183q0 -31 21.5 -53t51.5 -22h184q30 0 51.5 21.5t21.5 51.5v184q0 31 -21.5 52.5t-51.5 21.5h-184z
M360 -93h-205q-51 0 -87 36t-36 87v204q0 51 36 87t87 36h205q51 0 87 -36t36 -87v-204q0 -51 -36 -87t-87 -36zM165 297q-30 0 -51.5 -21t-21.5 -52v-183q0 -30 21.5 -51.5t51.5 -21.5h184q30 0 51.5 21.5t21.5 51.5v183q0 31 -21.5 52t-51.5 21h-184zM869 -94h-205
q-51 0 -87 36t-36 87v204q0 51 36 87t87 36h205q51 0 87 -36t36 -87v-204q0 -51 -36 -87t-87 -36zM675 296q-31 0 -52 -21t-21 -52v-183q0 -30 21 -51.5t52 -21.5h183q30 0 51.5 21.5t21.5 51.5v183q0 31 -21.5 52t-51.5 21h-183zM965 430q-11 0 -20.5 6t-9.5 14v338l-383 2
q-7 0 -13.5 10t-6.5 18.5t6.5 18.5t13.5 10h387q18 0 35.5 -16t17.5 -32v-350q0 -7 -9 -13t-18 -6zM592.5 428.5q-8.5 1.5 -17.5 10.5q-8 8 -9.5 17t3.5 14l339 328q5 5 14 3t18 -10q7 -9 9 -18t-3 -14l-339 -327q-6 -5 -14.5 -3.5z" />
  </font>
</defs>
</svg>
